Coordinates
version=1
nRows=17
nColumns=24
inDegrees=yes

Units are S.I. units (second, meters, Newtons, ...)
Angles are in degrees.

endheader
time	pelvis_tilt	pelvis_list	pelvis_rotation	pelvis_tx	pelvis_ty	pelvis_tz	hip_flexion_r	hip_adduction_r	hip_rotation_r	knee_angle_r	ankle_angle_r	subtalar_angle_r	mtp_angle_r	hip_flexion_l	hip_adduction_l	hip_rotation_l	knee_angle_l	ankle_angle_l	subtalar_angle_l	mtp_angle_l	lumbar_extension	lumbar_bending	lumbar_rotation
      1.76650000	     -0.23176557	      8.09118617	     -2.02869194	      1.43687023	      1.02128142	      0.24033862	     16.42449352	     -7.06106785	      2.86948949	    -68.01193045	      6.02512205	    -15.32751850	      0.70578231	      5.12347882	     13.43438081	      0.89225703	     -9.58959546	      0.65138509	    -16.42074193	      9.27602907	      0.18786236	     -9.13226069	      5.09089508
      1.77066667	     -0.23805823	      8.00920530	     -1.72993829	      1.44161836	      1.02173556	      0.23958354	     16.86990309	     -6.92942295	      2.76465875	    -67.60911265	      6.15036704	    -15.48738128	      0.60932348	      4.62857979	     13.40353312	      1.26312159	     -9.28027309	      0.70502925	    -16.40230303	      9.20986310	      0.14155648	     -9.04497142	      4.83719358
      1.77483333	     -0.28042832	      7.92043576	     -1.43887852	      1.44634855	      1.02210865	      0.23886431	     17.35229038	     -6.78469426	      2.67993405	    -67.18030275	      6.28203984	    -15.64492568	      0.54931789	      4.18790325	     13.35347106	      1.59096665	     -8.99810167	      0.75329816	    -16.31446900	      9.17300768	      0.12560651	     -8.95317968	      4.67535469
      1.77900000	     -0.29186114	      7.83909664	     -1.14925668	      1.45111708	      1.02250192	      0.23813036	     17.78733151	     -6.66500043	      2.58206024	    -66.71479555	      6.34415106	    -15.83138983	      0.44263835	      3.69074159	     13.31428106	      1.96664286	     -8.66951497	      0.81198302	    -16.34718518	      9.10607397	      0.10628983	     -8.86514806	      4.31522070
      1.78316667	     -0.31426014	      7.75771046	     -0.85424715	      1.45580880	      1.02282798	      0.23740985	     18.23419178	     -6.54702060	      2.49027042	    -66.23357270	      6.44400928	    -15.97029205	      0.33745461	      3.22872749	     13.26761077	      2.32634989	     -8.38018809	      0.86577512	    -16.33181839	      9.04324772	      0.07540750	     -8.78012032	      4.06187965
      1.78733333	     -0.35120629	      7.68739237	     -0.57445722	      1.46052374	      1.02311018	      0.23672362	     18.69170296	     -6.44180350	      2.41609597	    -65.72560044	      6.56798852	    -16.10513331	      0.16842874	      2.77573031	     13.22748580	      2.68462136	     -8.06660649	      0.86038542	    -16.35676848	      8.94061621	      0.06673342	     -8.71328698	      3.79095335
      1.79150000	     -0.37630399	      7.59983075	     -0.28856443	      1.46522673	      1.02338833	      0.23603097	     19.12034311	     -6.32650082	      2.33068345	    -65.17708786	      6.64352774	    -16.22008894	      0.07047042	      2.32497669	     13.16210950	      3.00804705	     -7.79101268	      0.96177931	    -16.30670395	      8.88777617	      0.04850450	     -8.61850704	      3.59676035
      1.79566667	     -0.38701165	      7.53813157	      0.00733953	      1.46991019	      1.02364119	      0.23535013	     19.53014613	     -6.24853130	      2.24046329	    -64.62002643	      6.76933243	    -16.32906608	     -0.07757505	      1.85474283	     13.12100426	      3.37138301	     -7.49573326	      0.96618429	    -16.30782498	      8.80478082	      0.00778399	     -8.56600659	      3.30189639
      1.79983333	     -0.43631050	      7.45321595	      0.29075910	      1.47461196	      1.02381695	      0.23468556	     19.97108546	     -6.14594743	      2.16127409	    -64.02434364	      6.86931089	    -16.39715349	     -0.12349166	      1.45115416	     13.04681691	      3.66246067	     -7.25667701	      1.05427316	    -16.20505847	      8.78391243	      0.01867987	     -8.47498200	      3.20906462
      1.80400000	     -0.45237366	      7.37354343	      0.59031070	      1.47927883	      1.02403362	      0.23403671	     20.35846822	     -6.05418423	      2.07237982	    -63.39130638	      6.93923983	    -16.49172963	     -0.18994107	      1.00397645	     12.97422054	      4.00454415	     -6.99572660	      1.10873835	    -16.17765483	      8.75245426	     -0.01896880	     -8.40388562	      2.98132152
      1.80816667	     -0.47863072	      7.31463082	      0.86175751	      1.48393406	      1.02415821	      0.23339529	     20.77023685	     -5.98935696	      2.00929615	    -62.76246537	      7.00887832	    -16.57289549	     -0.30666132	      0.55284260	     12.92596690	      4.36827291	     -6.70085389	      1.16038474	    -16.25111652	      8.69565751	     -0.03986091	     -8.34056205	      2.62814051
      1.81233333	     -0.52767321	      7.27069681	      1.12210126	      1.48860424	      1.02420927	      0.23279435	     21.20266577	     -5.94152524	      1.96158080	    -62.12176749	      7.12290896	    -16.60329715	     -0.33866789	      0.14750899	     12.88109327	      4.62314962	     -6.43718784	      1.20727251	    -16.13547984	      8.68322814	     -0.02921069	     -8.28988696	      2.56285252
      1.81650000	     -0.54787362	      7.20262986	      1.42003800	      1.49325218	      1.02431680	      0.23217704	     21.56743081	     -5.87390044	      1.88845498	    -61.41965295	      7.17120765	    -16.67295227	     -0.46603878	     -0.29818512	     12.81333673	      5.04596451	     -6.16520404	      1.22803979	    -16.26857778	      8.62285399	     -0.07131638	     -8.24584554	      2.17963136
      1.82066667	     -0.59108026	      7.13812479	      1.69357603	      1.49790915	      1.02435080	      0.23158822	     21.95935554	     -5.81538761	      1.82541615	    -60.70000593	      7.27088141	    -16.67096627	     -0.51658300	     -0.69301194	     12.73870874	      5.32129718	     -5.93745921	      1.28470332	    -16.19600374	      8.60158890	     -0.06090683	     -8.18748813	      2.09058323
      1.82483333	     -0.58938980	      7.08551355	      1.97026401	      1.50253758	      1.02441784	      0.23100126	     22.29228917	     -5.77374037	      1.76438232	    -59.96087789	      7.31860133	    -16.70954650	     -0.62488040	     -1.16779516	     12.67542023	      5.69780989	     -5.64744370	      1.32824137	    -16.26975296	      8.55410655	     -0.12027438	     -8.13900147	      1.77794228
      1.82900000	     -0.63886133	      7.03566010	      2.24153772	      1.50717477	      1.02438120	      0.23044895	     22.67144612	     -5.73554748	      1.71533268	    -59.19853315	      7.41024468	    -16.69082416	     -0.66981280	     -1.54919966	     12.60754266	      5.97422429	     -5.42440079	      1.37421544	    -16.19497148	      8.53682487	     -0.11518931	     -8.10335584	      1.68982871
      1.83316667	     -0.63734671	      6.99243033	      2.50727877	      1.51183728	      1.02439029	      0.22989333	     22.98420222	     -5.71140237	      1.66219557	    -58.40925807	      7.44335523	    -16.69966516	     -0.76621906	     -2.02044053	     12.54509632	      6.33462143	     -5.14148950	      1.42639977	    -16.26695601	      8.49314703	     -0.17208206	     -8.06745309	      1.39933270
